<svg width="128" height="27" viewBox="0 0 128 27" xmlns="http://www.w3.org/2000/svg"><title>OPENSHIFT CONTAINER</title><desc>Created with Sketch.</desc><path d="M12.667 6.916c0 2.042-.5 3.594-1.502 4.656-1.002 1.063-2.47 1.594-4.4 1.594-1.904 0-3.363-.534-4.38-1.602C1.372 10.496.864 8.94.864 6.9c0-2.02.505-3.563 1.515-4.63C3.388 1.207 4.856.674 6.782.674c1.93 0 3.395.53 4.39 1.586.997 1.056 1.495 2.608 1.495 4.656zm-8.35 0c0 2.346.816 3.52 2.448 3.52.83 0 1.446-.286 1.847-.856.4-.57.602-1.458.602-2.664 0-1.212-.203-2.107-.61-2.686-.407-.578-1.014-.867-1.822-.867-1.644 0-2.466 1.184-2.466 3.553zm23.35-2.192c0 1.356-.4 2.403-1.2 3.142-.8.74-1.936 1.108-3.408 1.108h-.923V13h-3.28V.864h4.202c1.53 0 2.683.335 3.452 1.005.77.668 1.154 1.62 1.154 2.854zM22.136 6.3h.598c.492 0 .884-.137 1.174-.414.29-.276.435-.658.435-1.145 0-.818-.454-1.228-1.36-1.228h-.848v2.79zM40.805 13H33.6V.864h7.205v2.632h-3.927v1.91h3.636v2.63h-3.636v2.29h3.927V13zm17.68 0h-4.3l-4.433-8.55h-.075c.105 1.345.158 2.37.158 3.08V13H46.93V.864h4.283l4.416 8.434h.05c-.08-1.223-.117-2.205-.117-2.947V.865h2.92V13zm14.558-3.686c0 .753-.19 1.42-.573 2.005-.382.583-.932 1.037-1.652 1.36-.72.324-1.563.486-2.53.486-.81 0-1.487-.057-2.035-.17-.548-.114-1.118-.31-1.71-.594V9.48c.625.32 1.276.572 1.95.752.676.18 1.296.27 1.86.27.487 0 .844-.085 1.07-.254.228-.168.34-.386.34-.65 0-.167-.044-.313-.136-.437-.09-.124-.238-.25-.44-.377s-.74-.387-1.614-.78c-.792-.36-1.385-.708-1.78-1.046-.396-.338-.69-.725-.88-1.162-.192-.437-.287-.955-.287-1.552 0-1.118.407-1.99 1.22-2.615.814-.625 1.93-.938 3.354-.938 1.256 0 2.537.29 3.843.872l-1.004 2.53c-1.136-.52-2.115-.78-2.94-.78-.426 0-.736.076-.93.225-.193.15-.29.335-.29.556 0 .238.123.45.37.64.246.188.914.53 2.004 1.03 1.046.47 1.772.974 2.18 1.514.406.54.61 1.218.61 2.037zM89.32 13h-3.296V8.053h-3.81V13H78.92V.864h3.294v4.5h3.81v-4.5h3.296V13zm6.623 0V.864h3.295V13h-3.295zm13.147 0h-3.23V.864h7.173v2.632h-3.943v2.316h3.636v2.63h-3.636V13zm15.29 0h-3.28V3.545h-2.963V.865h9.197v2.68h-2.955V13zM4.44 18.85c-.863 0-1.544.288-2.044.863s-.75 1.362-.75 2.36c0 1.028.242 1.822.723 2.383.483.56 1.17.84 2.06.84.55 0 1.174-.098 1.876-.295v.8c-.545.205-1.216.307-2.014.307-1.157 0-2.05-.35-2.678-1.052-.628-.702-.943-1.7-.943-2.992 0-.81.153-1.518.455-2.127.303-.61.74-1.078 1.31-1.407.572-.33 1.244-.495 2.018-.495.823 0 1.543.15 2.16.45l-.388.785c-.594-.28-1.19-.42-1.783-.42zm10.393 3.213c0 1.257-.318 2.245-.953 2.965-.636.72-1.52 1.08-2.65 1.08-1.158 0-2.05-.354-2.68-1.06-.627-.71-.94-1.707-.94-2.996 0-1.278.314-2.27.944-2.973.63-.704 1.526-1.056 2.686-1.056 1.128 0 2.008.358 2.642 1.074.634.716.95 1.705.95 2.965zm-6.257 0c0 1.063.226 1.87.68 2.42.452.55 1.11.824 1.973.824.87 0 1.528-.274 1.972-.822.444-.548.666-1.355.666-2.422 0-1.056-.22-1.858-.663-2.404-.442-.547-1.097-.82-1.963-.82-.87 0-1.532.275-1.985.825-.453.55-.68 1.35-.68 2.398zM22.72 26h-1.042l-4.292-6.59h-.043c.058.773.086 1.482.086 2.127V26h-.844v-7.853h1.03L21.9 24.71h.043c-.006-.096-.022-.406-.047-.93-.025-.526-.034-.9-.027-1.126v-4.507h.854V26zm4.576 0h-.913v-7.042h-2.487v-.81h5.887v.81h-2.487V26zm8.604 0l-.977-2.498h-3.148L30.81 26h-.925l3.104-7.885h.767L36.847 26H35.9zm-1.262-3.32l-.913-2.432c-.118-.308-.24-.686-.365-1.134-.08.344-.192.722-.34 1.134L32.1 22.68h2.54zM37.925 26v-7.853h.913V26h-.913zm9.2 0h-1.04l-4.293-6.59h-.042c.057.773.085 1.482.085 2.127V26h-.843v-7.853h1.03l4.282 6.564h.043c-.007-.096-.023-.406-.048-.93-.026-.526-.035-.9-.028-1.126v-4.507h.854V26zm6.538 0h-4.378v-7.853h4.378v.81h-3.465v2.53h3.255v.807h-3.255v2.89h3.465V26zm2.653-3.266V26h-.913v-7.853h2.154c.963 0 1.675.185 2.135.554.46.37.69.925.69 1.666 0 1.038-.527 1.74-1.58 2.105L60.936 26h-1.08l-1.9-3.266h-1.64zm0-.784h1.25c.646 0 1.12-.128 1.42-.384.3-.256.45-.64.45-1.152 0-.52-.153-.893-.46-1.122-.305-.23-.796-.344-1.473-.344h-1.187v3.002zm13.723-1.514c0 .794-.272 1.406-.815 1.834-.542.428-1.318.642-2.328.642h-.924V26h-.913v-7.853h2.036c1.962 0 2.943.763 2.943 2.29zm-4.067 1.69h.822c.81 0 1.395-.13 1.756-.39.363-.262.544-.68.544-1.257 0-.52-.17-.907-.51-1.162-.34-.254-.87-.38-1.59-.38h-1.02v3.19zM71.683 26v-7.853h.913v7.026h3.464V26h-4.377zm10.645 0l-.977-2.498h-3.147L77.236 26h-.924l3.105-7.885h.768L83.273 26h-.945zm-1.262-3.32l-.913-2.432c-.118-.308-.24-.686-.365-1.134-.08.344-.192.722-.34 1.134l-.923 2.433h2.54zM86.77 26h-.913v-7.042H83.37v-.81h5.887v.81H86.77V26zm4.582 0h-.914v-7.853h4.378v.81h-3.464v2.875h3.254v.81h-3.254V26zm11.58-3.937c0 1.257-.318 2.245-.954 2.965-.635.72-1.52 1.08-2.65 1.08-1.157 0-2.05-.354-2.678-1.06-.628-.71-.942-1.707-.942-2.996 0-1.278.315-2.27.945-2.973.63-.704 1.525-1.056 2.685-1.056 1.128 0 2.01.358 2.643 1.074.635.716.952 1.705.952 2.965zm-6.258 0c0 1.063.227 1.87.68 2.42.453.55 1.11.824 1.974.824.87 0 1.527-.274 1.97-.822.445-.548.667-1.355.667-2.422 0-1.056-.22-1.858-.663-2.404-.443-.547-1.097-.82-1.964-.82-.87 0-1.53.275-1.984.825-.453.55-.68 1.35-.68 2.398zm8.922.67V26h-.913v-7.853h2.153c.964 0 1.675.185 2.135.554.462.37.692.925.692 1.666 0 1.038-.527 1.74-1.58 2.105l2.133 3.53h-1.08l-1.9-3.266h-1.64zm0-.783h1.25c.646 0 1.118-.128 1.42-.384.3-.256.45-.64.45-1.152 0-.52-.153-.893-.46-1.122-.305-.23-.797-.344-1.473-.344h-1.187v3.002zm9.362 4.05l-2.665-6.96h-.043c.05.55.076 1.206.076 1.965V26h-.844v-7.853h1.375l2.487 6.478h.043l2.51-6.478h1.363V26h-.913v-5.06c0-.58.025-1.21.075-1.89h-.043L115.692 26h-.735z" fill="#fff"/></svg>