<?xml version="1.0" encoding="utf-8"?>
<!-- Generator: Adobe Illustrator 23.0.1, SVG Export Plug-In . SVG Version: 6.00 Build 0)  -->
<svg version="1.1" id="Layer_1" xmlns="http://www.w3.org/2000/svg" xmlns:xlink="http://www.w3.org/1999/xlink" x="0px" y="0px"
	 viewBox="0 0 64 64" style="enable-background:new 0 0 64 64;" xml:space="preserve">
<style type="text/css">
	.st0{fill:none;stroke:#0079a5;stroke-width:3.9768;stroke-miterlimit:10;}
	.st1{fill:none;stroke:#0079a5;stroke-width:3.9768;stroke-linejoin:round;stroke-miterlimit:10;}
</style>
<path class="st0" d="M54.4,23.6C58.9,26,62,30.7,62,36.2V50H46.3"/>
<path class="st0" d="M17.7,50H2V36.2c0-5.3,3-10,7.3-12.4"/>
<path class="st0" d="M56.6,11.3c0.8,1.4,1.2,3,1.2,4.7c0,5.5-4.5,9.9-9.9,9.9c-2.6,0-4.9-1-6.7-2.6"/>
<path class="st0" d="M38,16c0-1.8,0.5-3.6,1.4-5"/>
<path class="st0" d="M24.7,11c0.8,1.4,1.3,2.9,1.3,4.6"/>
<path class="st0" d="M22.6,23.6c-1.7,1.5-4,2.4-6.5,2.4c-5.5,0-9.9-4.5-9.9-9.9c0-1.7,0.4-3.3,1.2-4.7"/>
<path class="st0" d="M38.7,35.7c4.4,2.4,7.4,7,7.4,12.4V62H17.9V48.1c0-5.3,2.9-9.9,7.2-12.3"/>
<path class="st0" d="M40.2,22.4c1.1,1.6,1.7,3.5,1.7,5.6c0,5.5-4.5,9.9-9.9,9.9s-9.9-4.5-9.9-9.9c0-1.8,0.5-3.5,1.3-4.9"/>
<path class="st1" d="M56.5,12.1c0.2-3,0.8-4.2,3.3-6L47.9,2.1L36,6c2.4,1.7,3,3,3.2,6H56.5z"/>
<path class="st1" d="M24.6,12.1c0.2-3,0.8-4.2,3.3-6L16,2.1L4.1,6c2.4,1.7,3,3,3.2,6H24.6z"/>
<path class="st1" d="M40.6,24c0.2-3,0.8-4.2,3.3-6L32,14L20.1,18c2.4,1.7,3,3,3.2,6H40.6z"/>
</svg>
