<?xml version="1.0" encoding="UTF-8" standalone="no"?>
<!DOCTYPE svg PUBLIC "-//W3C//DTD SVG 1.1//EN"
 "http://www.w3.org/Graphics/SVG/1.1/DTD/svg11.dtd">
<!-- Generated by graphviz version 2.44.0 (0)
 -->
<!-- Pages: 1 -->
<svg width="495pt" height="113pt"
 viewBox="0.00 0.00 494.58 113.00" xmlns="http://www.w3.org/2000/svg" xmlns:xlink="http://www.w3.org/1999/xlink">
<g id="graph0" class="graph" transform="scale(1 1) rotate(0) translate(4 109)">
<polygon fill="white" stroke="transparent" points="-4,4 -4,-109 490.58,-109 490.58,4 -4,4"/>
<g id="clust2" class="cluster">
<title>cluster_fluentd</title>
<polygon fill="none" stroke="black" points="253.49,-19 253.49,-97 323.49,-97 323.49,-19 253.49,-19"/>
<text text-anchor="middle" x="288.49" y="-80.2" font-family="helvetica" font-size="16.00">fluentd</text>
</g>
<!-- crio -->
<g id="node1" class="node">
<title>crio</title>
<ellipse fill="aliceblue" stroke="black" cx="42.25" cy="-72" rx="36.29" ry="18"/>
<text text-anchor="middle" x="42.25" y="-68.3" font-family="helvetica" font-size="14.00">CRI&#45;O</text>
</g>
<!-- files -->
<g id="node3" class="node">
<title>files</title>
<path fill="beige" stroke="black" d="M200.49,-59.73C200.49,-61.53 188.39,-63 173.49,-63 158.59,-63 146.49,-61.53 146.49,-59.73 146.49,-59.73 146.49,-30.27 146.49,-30.27 146.49,-28.47 158.59,-27 173.49,-27 188.39,-27 200.49,-28.47 200.49,-30.27 200.49,-30.27 200.49,-59.73 200.49,-59.73"/>
<path fill="none" stroke="black" d="M200.49,-59.73C200.49,-57.92 188.39,-56.45 173.49,-56.45 158.59,-56.45 146.49,-57.92 146.49,-59.73"/>
<text text-anchor="middle" x="173.49" y="-41.3" font-family="helvetica" font-size="14.00">files</text>
</g>
<!-- crio&#45;&gt;files -->
<g id="edge1" class="edge">
<title>crio&#45;&gt;files</title>
<path fill="none" stroke="black" stroke-width="2" d="M86.23,-63.02C102.32,-59.66 120.43,-55.88 135.89,-52.65"/>
<polygon fill="black" stroke="black" stroke-width="2" points="77.01,-69.03 75.38,-61.2 83.21,-59.57 84.84,-67.4 77.01,-69.03"/>
<polyline fill="none" stroke="black" stroke-width="2" points="84.03,-63.48 85.98,-63.07 "/>
<polygon fill="black" stroke="black" stroke-width="2" points="137.04,-55.98 146.11,-50.51 135.61,-49.13 137.04,-55.98"/>
<text text-anchor="middle" x="115.49" y="-62.4" font-family="helvetica" font-size="12.00">write</text>
</g>
<!-- journald -->
<g id="node2" class="node">
<title>journald</title>
<ellipse fill="aliceblue" stroke="black" cx="42.25" cy="-18" rx="42.49" ry="18"/>
<text text-anchor="middle" x="42.25" y="-14.3" font-family="helvetica" font-size="14.00">journald</text>
</g>
<!-- journald&#45;&gt;files -->
<g id="edge2" class="edge">
<title>journald&#45;&gt;files</title>
<path fill="none" stroke="black" stroke-width="2" d="M90.53,-27.88C105.66,-31.04 122.17,-34.49 136.38,-37.46"/>
<polygon fill="black" stroke="black" stroke-width="2" points="79.81,-29.72 81.45,-21.89 89.28,-23.53 87.64,-31.36 79.81,-29.72"/>
<polyline fill="none" stroke="black" stroke-width="2" points="88.46,-27.45 90.42,-27.85 "/>
<polygon fill="black" stroke="black" stroke-width="2" points="135.76,-40.9 146.26,-39.52 137.19,-34.05 135.76,-40.9"/>
<text text-anchor="middle" x="115.49" y="-39.4" font-family="helvetica" font-size="12.00">write</text>
</g>
<!-- buffer -->
<g id="node4" class="node">
<title>buffer</title>
<path fill="beige" stroke="black" d="M315.49,-59.73C315.49,-61.53 303.39,-63 288.49,-63 273.59,-63 261.49,-61.53 261.49,-59.73 261.49,-59.73 261.49,-30.27 261.49,-30.27 261.49,-28.47 273.59,-27 288.49,-27 303.39,-27 315.49,-28.47 315.49,-30.27 315.49,-30.27 315.49,-59.73 315.49,-59.73"/>
<path fill="none" stroke="black" d="M315.49,-59.73C315.49,-57.92 303.39,-56.45 288.49,-56.45 273.59,-56.45 261.49,-57.92 261.49,-59.73"/>
<text text-anchor="middle" x="288.49" y="-41.3" font-family="helvetica" font-size="14.00">buffer</text>
</g>
<!-- files&#45;&gt;buffer -->
<g id="edge3" class="edge">
<title>files&#45;&gt;buffer</title>
<path fill="none" stroke="black" stroke-dasharray="5,2" d="M211.05,-45C223.88,-45 238.29,-45 251.1,-45"/>
<polygon fill="black" stroke="black" points="200.7,-41.5 210.7,-45 200.7,-48.5 200.7,-41.5"/>
<polygon fill="black" stroke="black" points="251.43,-48.5 261.43,-45 251.43,-41.5 251.43,-48.5"/>
<text text-anchor="middle" x="230.99" y="-48.4" font-family="helvetica" font-size="12.00">read</text>
</g>
<!-- consumer -->
<g id="node5" class="node">
<title>consumer</title>
<ellipse fill="aliceblue" stroke="black" cx="436.54" cy="-45" rx="50.09" ry="18"/>
<text text-anchor="middle" x="436.54" y="-41.3" font-family="helvetica" font-size="14.00">consumer</text>
</g>
<!-- buffer&#45;&gt;consumer -->
<g id="edge4" class="edge">
<title>buffer&#45;&gt;consumer</title>
<path fill="none" stroke="black" stroke-width="2" d="M325.83,-45C340.97,-45 358.95,-45 375.92,-45"/>
<polygon fill="black" stroke="black" stroke-width="2" points="315.6,-49 315.6,-41 323.6,-41 323.6,-49 315.6,-49"/>
<polyline fill="none" stroke="black" stroke-width="2" points="323.6,-45 325.6,-45 "/>
<polygon fill="black" stroke="black" stroke-width="2" points="376.33,-48.5 386.33,-45 376.33,-41.5 376.33,-48.5"/>
<text text-anchor="middle" x="350.99" y="-48.4" font-family="helvetica" font-size="12.00">socket</text>
</g>
</g>
</svg>
