<?xml version="1.0" encoding="UTF-8" standalone="no"?>
<!DOCTYPE svg PUBLIC "-//W3C//DTD SVG 1.1//EN"
 "http://www.w3.org/Graphics/SVG/1.1/DTD/svg11.dtd">
<!-- Generated by graphviz version 2.44.0 (0)
 -->
<!-- Pages: 1 -->
<svg width="409pt" height="106pt"
 viewBox="0.00 0.00 409.00 106.00" xmlns="http://www.w3.org/2000/svg" xmlns:xlink="http://www.w3.org/1999/xlink">
<g id="graph0" class="graph" transform="scale(1 1) rotate(0) translate(4 102)">
<polygon fill="white" stroke="transparent" points="-4,4 -4,-102 405,-102 405,4 -4,4"/>
<!-- disk -->
<g id="node1" class="node">
<title>disk</title>
<path fill="beige" stroke="black" d="M398.5,-32.73C398.5,-34.53 375.87,-36 348,-36 320.13,-36 297.5,-34.53 297.5,-32.73 297.5,-32.73 297.5,-3.27 297.5,-3.27 297.5,-1.47 320.13,0 348,0 375.87,0 398.5,-1.47 398.5,-3.27 398.5,-3.27 398.5,-32.73 398.5,-32.73"/>
<path fill="none" stroke="black" d="M398.5,-32.73C398.5,-30.92 375.87,-29.45 348,-29.45 320.13,-29.45 297.5,-30.92 297.5,-32.73"/>
<text text-anchor="middle" x="348" y="-14.3" font-family="helvetica" font-size="14.00">disk file/buffer</text>
</g>
<!-- memory -->
<g id="node2" class="node">
<title>memory</title>
<polygon fill="yellow" stroke="black" points="401,-90 295,-90 295,-54 401,-54 401,-90"/>
<text text-anchor="middle" x="348" y="-68.3" font-family="helvetica" font-size="14.00">memory buffer</text>
</g>
<!-- l1 -->
<g id="node3" class="node">
<title>l1</title>
</g>
<!-- r1 -->
<g id="node5" class="node">
<title>r1</title>
</g>
<!-- l1&#45;&gt;r1 -->
<g id="edge1" class="edge">
<title>l1&#45;&gt;r1</title>
<path fill="none" stroke="black" stroke-width="2" d="M64.6,-18C101.21,-18 157.19,-18 193.7,-18"/>
<polygon fill="black" stroke="black" stroke-width="2" points="54.41,-22 54.41,-14 62.41,-14 62.41,-22 54.41,-22"/>
<polyline fill="none" stroke="black" stroke-width="2" points="62.41,-18 64.41,-18 "/>
<polygon fill="black" stroke="black" stroke-width="2" points="193.91,-21.5 203.91,-18 193.91,-14.5 193.91,-21.5"/>
<text text-anchor="middle" x="129" y="-34.4" font-family="helvetica" font-size="12.00">data flow</text>
<text text-anchor="middle" x="129" y="-21.4" font-family="helvetica" font-size="12.00"> with backpressure</text>
</g>
<!-- l2 -->
<g id="node4" class="node">
<title>l2</title>
</g>
<!-- r2 -->
<g id="node6" class="node">
<title>r2</title>
</g>
<!-- l2&#45;&gt;r2 -->
<g id="edge2" class="edge">
<title>l2&#45;&gt;r2</title>
<path fill="none" stroke="black" stroke-dasharray="5,2" d="M64.6,-72C101.21,-72 157.19,-72 193.7,-72"/>
<polygon fill="black" stroke="black" points="54.41,-68.5 64.41,-72 54.41,-75.5 54.41,-68.5"/>
<polygon fill="black" stroke="black" points="193.91,-75.5 203.91,-72 193.91,-68.5 193.91,-75.5"/>
<text text-anchor="middle" x="129" y="-88.4" font-family="helvetica" font-size="12.00">data flow</text>
<text text-anchor="middle" x="129" y="-75.4" font-family="helvetica" font-size="12.00">without backpressure</text>
</g>
<!-- r1&#45;&gt;disk -->
<g id="edge3" class="edge">
<title>r1&#45;&gt;disk</title>
</g>
<!-- r2&#45;&gt;memory -->
<g id="edge4" class="edge">
<title>r2&#45;&gt;memory</title>
</g>
</g>
</svg>
