<?xml version="1.0" encoding="UTF-8" standalone="no"?>
<!DOCTYPE svg PUBLIC "-//W3C//DTD SVG 1.1//EN"
 "http://www.w3.org/Graphics/SVG/1.1/DTD/svg11.dtd">
<!-- Generated by graphviz version 2.44.0 (0)
 -->
<!-- Pages: 1 -->
<svg width="516pt" height="230pt"
 viewBox="0.00 0.00 516.13 230.00" xmlns="http://www.w3.org/2000/svg" xmlns:xlink="http://www.w3.org/1999/xlink">
<g id="graph0" class="graph" transform="scale(1 1) rotate(0) translate(4 226)">
<polygon fill="white" stroke="transparent" points="-4,4 -4,-226 512.13,-226 512.13,4 -4,4"/>
<g id="clust2" class="cluster">
<title>cluster_collector</title>
<polygon fill="none" stroke="black" points="208.04,-64 208.04,-214 345.04,-214 345.04,-64 208.04,-64"/>
<text text-anchor="middle" x="276.54" y="-197.2" font-family="helvetica" font-size="16.00">collector</text>
<text text-anchor="middle" x="276.54" y="-179.2" font-family="helvetica" font-size="16.00">fluentd/flunentbit</text>
</g>
<!-- crio -->
<g id="node1" class="node">
<title>crio</title>
<ellipse fill="aliceblue" stroke="black" cx="55.79" cy="-144" rx="36.29" ry="18"/>
<text text-anchor="middle" x="55.79" y="-140.3" font-family="helvetica" font-size="14.00">CRI&#45;O</text>
</g>
<!-- files -->
<g id="node3" class="node">
<title>files</title>
<path fill="beige" stroke="black" d="M82.79,-32.73C82.79,-34.53 70.69,-36 55.79,-36 40.89,-36 28.79,-34.53 28.79,-32.73 28.79,-32.73 28.79,-3.27 28.79,-3.27 28.79,-1.47 40.89,0 55.79,0 70.69,0 82.79,-1.47 82.79,-3.27 82.79,-3.27 82.79,-32.73 82.79,-32.73"/>
<path fill="none" stroke="black" d="M82.79,-32.73C82.79,-30.92 70.69,-29.45 55.79,-29.45 40.89,-29.45 28.79,-30.92 28.79,-32.73"/>
<text text-anchor="middle" x="55.79" y="-14.3" font-family="helvetica" font-size="14.00">files</text>
</g>
<!-- crio&#45;&gt;files -->
<g id="edge5" class="edge">
<title>crio&#45;&gt;files</title>
<path fill="none" stroke="black" stroke-width="2" d="M19.54,-126.52C13.18,-121.55 7.62,-115.42 4.54,-108 -1.58,-93.22 -1.39,-86.86 4.54,-72 9.03,-60.77 17.08,-50.53 25.49,-42.06"/>
<polygon fill="black" stroke="black" stroke-width="2" points="30.15,-128.9 25.64,-135.52 19.03,-131.01 23.53,-124.4 30.15,-128.9"/>
<polyline fill="none" stroke="black" stroke-width="2" points="21.28,-127.71 19.63,-126.58 "/>
<polygon fill="black" stroke="black" stroke-width="2" points="28.02,-44.5 32.9,-35.09 23.22,-39.4 28.02,-44.5"/>
</g>
<!-- fb -->
<g id="node4" class="node">
<title>fb</title>
<path fill="aliceblue" stroke="black" d="M312.04,-158.73C312.04,-160.53 295.9,-162 276.04,-162 256.17,-162 240.04,-160.53 240.04,-158.73 240.04,-158.73 240.04,-129.27 240.04,-129.27 240.04,-127.47 256.17,-126 276.04,-126 295.9,-126 312.04,-127.47 312.04,-129.27 312.04,-129.27 312.04,-158.73 312.04,-158.73"/>
<path fill="none" stroke="black" d="M312.04,-158.73C312.04,-156.92 295.9,-155.45 276.04,-155.45 256.17,-155.45 240.04,-156.92 240.04,-158.73"/>
<text text-anchor="middle" x="276.04" y="-140.3" font-family="helvetica" font-size="14.00">file buffer</text>
</g>
<!-- crio&#45;&gt;fb -->
<g id="edge3" class="edge">
<title>crio&#45;&gt;fb</title>
<path fill="none" stroke="black" stroke-width="2" d="M101.89,-148.2C106.66,-148.53 111.45,-148.81 116.04,-149 152.45,-150.53 161.61,-150.18 198.04,-149 208.28,-148.67 219.28,-148.09 229.66,-147.44"/>
<polygon fill="black" stroke="black" stroke-width="2" points="91.23,-151.41 91.83,-143.44 99.81,-144.04 99.21,-152.01 91.23,-151.41"/>
<polyline fill="none" stroke="black" stroke-width="2" points="99.51,-148.02 101.51,-148.17 "/>
<polygon fill="black" stroke="black" stroke-width="2" points="230.05,-150.92 239.79,-146.77 229.59,-143.93 230.05,-150.92"/>
<text text-anchor="middle" x="157.04" y="-153.4" font-family="helvetica" font-size="12.00">socket/pipe</text>
</g>
<!-- mb -->
<g id="node5" class="node">
<title>mb</title>
<polygon fill="yellow" stroke="black" points="329.04,-108 223.04,-108 223.04,-72 329.04,-72 329.04,-108"/>
<text text-anchor="middle" x="276.04" y="-86.3" font-family="helvetica" font-size="14.00">memory buffer</text>
</g>
<!-- crio&#45;&gt;mb -->
<g id="edge4" class="edge">
<title>crio&#45;&gt;mb</title>
<path fill="none" stroke="black" stroke-width="2" d="M99.57,-134.97C134.07,-127.63 179.73,-117.74 198.04,-113 202.97,-111.72 208.07,-110.34 213.19,-108.91"/>
<polygon fill="black" stroke="black" stroke-width="2" points="90.56,-140.98 88.89,-133.15 96.72,-131.49 98.38,-139.32 90.56,-140.98"/>
<polyline fill="none" stroke="black" stroke-width="2" points="97.55,-135.4 99.51,-134.99 "/>
<polygon fill="black" stroke="black" stroke-width="2" points="214.34,-112.22 222.99,-106.11 212.42,-105.49 214.34,-112.22"/>
<text text-anchor="middle" x="157.04" y="-133.4" font-family="helvetica" font-size="12.00">socket/pipe</text>
</g>
<!-- journald -->
<g id="node2" class="node">
<title>journald</title>
<ellipse fill="aliceblue" stroke="black" cx="55.79" cy="-90" rx="42.49" ry="18"/>
<text text-anchor="middle" x="55.79" y="-86.3" font-family="helvetica" font-size="14.00">journald</text>
</g>
<!-- journald&#45;&gt;files -->
<g id="edge6" class="edge">
<title>journald&#45;&gt;files</title>
<path fill="none" stroke="black" stroke-width="2" d="M55.79,-61.94C55.79,-56.73 55.79,-51.52 55.79,-46.31"/>
<polygon fill="black" stroke="black" stroke-width="2" points="59.79,-71.95 51.79,-71.95 51.79,-63.95 59.79,-63.95 59.79,-71.95"/>
<polyline fill="none" stroke="black" stroke-width="2" points="55.79,-63.95 55.79,-61.95 "/>
<polygon fill="black" stroke="black" stroke-width="2" points="59.29,-46.28 55.79,-36.28 52.29,-46.28 59.29,-46.28"/>
</g>
<!-- journald&#45;&gt;fb -->
<g id="edge1" class="edge">
<title>journald&#45;&gt;fb</title>
<path fill="none" stroke="black" stroke-width="2" d="M105.7,-82.67C134.61,-80.83 170.77,-83.1 198.04,-100 205.49,-104.62 201.39,-111.28 208.04,-117 214.59,-122.65 222.48,-127.21 230.51,-130.87"/>
<polygon fill="black" stroke="black" stroke-width="2" points="95.73,-87.5 95.08,-79.52 103.05,-78.87 103.71,-86.84 95.73,-87.5"/>
<polyline fill="none" stroke="black" stroke-width="2" points="103.38,-82.86 105.37,-82.69 "/>
<polygon fill="black" stroke="black" stroke-width="2" points="229.35,-134.17 239.92,-134.75 232.01,-127.7 229.35,-134.17"/>
<text text-anchor="middle" x="157.04" y="-103.4" font-family="helvetica" font-size="12.00">journald socket</text>
</g>
<!-- journald&#45;&gt;mb -->
<g id="edge2" class="edge">
<title>journald&#45;&gt;mb</title>
<path fill="none" stroke="black" stroke-width="2" d="M91.73,-71.84C99.53,-68.59 107.91,-65.71 116.04,-64 151.7,-56.52 162.07,-58.09 198.04,-64 205.22,-65.18 212.63,-66.94 219.88,-69"/>
<polygon fill="black" stroke="black" stroke-width="2" points="84.18,-79.58 80.93,-72.27 88.24,-69.02 91.49,-76.33 84.18,-79.58"/>
<polyline fill="none" stroke="black" stroke-width="2" points="89.86,-72.67 91.69,-71.86 "/>
<polygon fill="black" stroke="black" stroke-width="2" points="219.07,-72.4 229.65,-71.96 221.1,-65.71 219.07,-72.4"/>
<text text-anchor="middle" x="157.04" y="-67.4" font-family="helvetica" font-size="12.00">journald socket</text>
</g>
<!-- consumer -->
<g id="node6" class="node">
<title>consumer</title>
<ellipse fill="aliceblue" stroke="black" cx="458.08" cy="-119" rx="50.09" ry="18"/>
<text text-anchor="middle" x="458.08" y="-115.3" font-family="helvetica" font-size="14.00">consumer</text>
</g>
<!-- fb&#45;&gt;consumer -->
<g id="edge7" class="edge">
<title>fb&#45;&gt;consumer</title>
<path fill="none" stroke="black" stroke-width="2" d="M322.2,-137.73C346.06,-134.42 375.57,-130.32 400.9,-126.8"/>
<polygon fill="black" stroke="black" stroke-width="2" points="312.73,-143.08 311.63,-135.16 319.55,-134.06 320.65,-141.98 312.73,-143.08"/>
<polyline fill="none" stroke="black" stroke-width="2" points="320.1,-138.02 322.08,-137.74 "/>
<polygon fill="black" stroke="black" stroke-width="2" points="401.68,-130.23 411.11,-125.38 400.72,-123.29 401.68,-130.23"/>
<text text-anchor="middle" x="372.54" y="-135.4" font-family="helvetica" font-size="12.00">socket</text>
</g>
<!-- mb&#45;&gt;consumer -->
<g id="edge8" class="edge">
<title>mb&#45;&gt;consumer</title>
<path fill="none" stroke="black" stroke-width="2" d="M339.19,-100.01C359.62,-103.3 382.17,-106.93 402.03,-110.13"/>
<polygon fill="black" stroke="black" stroke-width="2" points="328.48,-102.34 329.75,-94.44 337.65,-95.71 336.37,-103.61 328.48,-102.34"/>
<polyline fill="none" stroke="black" stroke-width="2" points="337.01,-99.66 338.99,-99.98 "/>
<polygon fill="black" stroke="black" stroke-width="2" points="401.71,-113.63 412.14,-111.76 402.83,-106.72 401.71,-113.63"/>
<text text-anchor="middle" x="372.54" y="-110.4" font-family="helvetica" font-size="12.00">socket</text>
</g>
</g>
</svg>
