<?xml version="1.0" encoding="UTF-8" standalone="no"?>
<!DOCTYPE svg PUBLIC "-//W3C//DTD SVG 1.1//EN"
 "http://www.w3.org/Graphics/SVG/1.1/DTD/svg11.dtd">
<!-- Generated by graphviz version 2.44.0 (0)
 -->
<!-- Pages: 1 -->
<svg width="374pt" height="44pt"
 viewBox="0.00 0.00 374.04 44.00" xmlns="http://www.w3.org/2000/svg" xmlns:xlink="http://www.w3.org/1999/xlink">
<g id="graph0" class="graph" transform="scale(1 1) rotate(0) translate(4 40)">
<polygon fill="white" stroke="transparent" points="-4,4 -4,-40 370.04,-40 370.04,4 -4,4"/>
<!-- Resource -->
<g id="node1" class="node">
<title>Resource</title>
<polygon fill="orchid" stroke="black" points="111.11,-18 83.32,-36 27.75,-36 -0.04,-18 27.75,0 83.32,0 111.11,-18"/>
<text text-anchor="middle" x="55.54" y="-14.3" font-family="helvetica" font-size="14.00">Resource</text>
</g>
<!-- Container -->
<g id="node2" class="node">
<title>Container</title>
<polygon fill="cyan" stroke="black" points="204.04,-36 129.04,-36 129.04,0 204.04,0 204.04,-36"/>
<text text-anchor="middle" x="166.54" y="-14.3" font-family="helvetica" font-size="14.00">Container</text>
</g>
<!-- Store -->
<g id="node3" class="node">
<title>Store</title>
<path fill="beige" stroke="black" d="M276.54,-32.73C276.54,-34.53 264.43,-36 249.54,-36 234.64,-36 222.54,-34.53 222.54,-32.73 222.54,-32.73 222.54,-3.27 222.54,-3.27 222.54,-1.47 234.64,0 249.54,0 264.43,0 276.54,-1.47 276.54,-3.27 276.54,-3.27 276.54,-32.73 276.54,-32.73"/>
<path fill="none" stroke="black" d="M276.54,-32.73C276.54,-30.92 264.43,-29.45 249.54,-29.45 234.64,-29.45 222.54,-30.92 222.54,-32.73"/>
<text text-anchor="middle" x="249.54" y="-14.3" font-family="helvetica" font-size="14.00">Store</text>
</g>
<!-- Operator -->
<g id="node4" class="node">
<title>Operator</title>
<polygon fill="transparent" stroke="black" points="366.04,-36 295.04,-36 295.04,0 366.04,0 366.04,-36"/>
<text text-anchor="middle" x="330.54" y="-14.3" font-family="helvetica" font-size="14.00">Operator</text>
</g>
</g>
</svg>
