<?xml version="1.0" encoding="UTF-8" standalone="no"?>
<!DOCTYPE svg PUBLIC "-//W3C//DTD SVG 1.1//EN"
 "http://www.w3.org/Graphics/SVG/1.1/DTD/svg11.dtd">
<!-- Generated by graphviz version 2.44.0 (0)
 -->
<!-- Pages: 1 -->
<svg width="592pt" height="208pt"
 viewBox="0.00 0.00 592.00 208.00" xmlns="http://www.w3.org/2000/svg" xmlns:xlink="http://www.w3.org/1999/xlink">
<g id="graph0" class="graph" transform="scale(1 1) rotate(0) translate(4 204)">
<polygon fill="white" stroke="transparent" points="-4,4 -4,-204 588,-204 588,4 -4,4"/>
<g id="clust1" class="cluster">
<title>cluster_node</title>
<polygon fill="none" stroke="black" points="8,-46 8,-180 403,-180 403,-46 8,-46"/>
<text text-anchor="middle" x="205.5" y="-163.2" font-family="helvetica" font-size="16.00">Node</text>
</g>
<!-- Logs -->
<g id="node1" class="node">
<title>Logs</title>
<path fill="beige" stroke="black" d="M233,-120.48C233,-123.11 215.07,-125.25 193,-125.25 170.93,-125.25 153,-123.11 153,-120.48 153,-120.48 153,-77.52 153,-77.52 153,-74.89 170.93,-72.75 193,-72.75 215.07,-72.75 233,-74.89 233,-77.52 233,-77.52 233,-120.48 233,-120.48"/>
<path fill="none" stroke="black" d="M233,-120.48C233,-117.84 215.07,-115.7 193,-115.7 170.93,-115.7 153,-117.84 153,-120.48"/>
<text text-anchor="middle" x="193" y="-102.8" font-family="helvetica" font-size="14.00">Node Disk</text>
<text text-anchor="middle" x="193" y="-87.8" font-family="helvetica" font-size="14.00">/var/log/...</text>
</g>
<!-- Fluentd -->
<g id="node4" class="node">
<title>Fluentd</title>
<polygon fill="cyan" stroke="black" points="395,-118 306,-118 306,-80 395,-80 395,-118"/>
<text text-anchor="middle" x="350.5" y="-102.8" font-family="helvetica" font-size="14.00">Fluentd</text>
<text text-anchor="middle" x="350.5" y="-87.8" font-family="helvetica" font-size="14.00">DaemonSet</text>
</g>
<!-- Logs&#45;&gt;Fluentd -->
<g id="edge3" class="edge">
<title>Logs&#45;&gt;Fluentd</title>
<path fill="none" stroke="black" d="M233.24,-99C252.17,-99 275.18,-99 295.72,-99"/>
<polygon fill="black" stroke="black" points="295.89,-102.5 305.89,-99 295.89,-95.5 295.89,-102.5"/>
<text text-anchor="middle" x="269.5" y="-102.4" font-family="helvetica" font-size="12.00">scrape</text>
</g>
<!-- Container -->
<g id="node2" class="node">
<title>Container</title>
<polygon fill="cyan" stroke="black" points="91,-146 16,-146 16,-108 91,-108 91,-146"/>
<text text-anchor="middle" x="53.5" y="-130.8" font-family="helvetica" font-size="14.00">Container</text>
<text text-anchor="middle" x="53.5" y="-115.8" font-family="helvetica" font-size="14.00">(CRI&#45;O)</text>
</g>
<!-- Container&#45;&gt;Logs -->
<g id="edge1" class="edge">
<title>Container&#45;&gt;Logs</title>
<path fill="none" stroke="black" d="M91.35,-119.5C107.03,-116.3 125.55,-112.53 142.4,-109.1"/>
<polygon fill="black" stroke="black" points="143.54,-112.44 152.64,-107.01 142.14,-105.58 143.54,-112.44"/>
<text text-anchor="middle" x="122" y="-118.4" font-family="helvetica" font-size="12.00">write</text>
</g>
<!-- Journald -->
<g id="node3" class="node">
<title>Journald</title>
<polygon fill="aliceblue" stroke="black" points="87.5,-90 19.5,-90 19.5,-54 87.5,-54 87.5,-90"/>
<text text-anchor="middle" x="53.5" y="-68.3" font-family="helvetica" font-size="14.00">Journald</text>
</g>
<!-- Journald&#45;&gt;Logs -->
<g id="edge2" class="edge">
<title>Journald&#45;&gt;Logs</title>
<path fill="none" stroke="black" d="M87.54,-76.1C102.15,-78.12 119.5,-80.81 135,-84 137.63,-84.54 140.33,-85.13 143.04,-85.75"/>
<polygon fill="black" stroke="black" points="142.34,-89.18 152.88,-88.1 143.97,-82.37 142.34,-89.18"/>
<text text-anchor="middle" x="122" y="-87.4" font-family="helvetica" font-size="12.00">write</text>
</g>
<!-- extfd -->
<g id="node5" class="node">
<title>extfd</title>
<polygon fill="aliceblue" stroke="black" points="568,-200 502,-200 502,-162 568,-162 568,-200"/>
<text text-anchor="middle" x="535" y="-184.8" font-family="helvetica" font-size="14.00">External</text>
<text text-anchor="middle" x="535" y="-169.8" font-family="helvetica" font-size="14.00">fluentd</text>
</g>
<!-- Fluentd&#45;&gt;extfd -->
<g id="edge7" class="edge">
<title>Fluentd&#45;&gt;extfd</title>
<path fill="none" stroke="black" d="M385.65,-118.16C394.46,-122.88 404,-127.78 413,-132 438.97,-144.18 468.83,-156.3 492.4,-165.43"/>
<polygon fill="black" stroke="black" points="491.16,-168.7 501.75,-169.03 493.67,-162.17 491.16,-168.7"/>
<text text-anchor="middle" x="440.5" y="-170.4" font-family="helvetica" font-size="12.00">fluent</text>
<text text-anchor="middle" x="440.5" y="-157.4" font-family="helvetica" font-size="12.00">forward</text>
</g>
<!-- Elasticsearch -->
<g id="node6" class="node">
<title>Elasticsearch</title>
<polygon fill="aliceblue" stroke="black" points="584,-144 486,-144 486,-108 584,-108 584,-144"/>
<text text-anchor="middle" x="535" y="-122.3" font-family="helvetica" font-size="14.00">Elasticsearch</text>
</g>
<!-- Fluentd&#45;&gt;Elasticsearch -->
<g id="edge4" class="edge">
<title>Fluentd&#45;&gt;Elasticsearch</title>
<path fill="none" stroke="black" d="M395.21,-105.47C419.32,-109.03 449.58,-113.51 475.68,-117.37"/>
<polygon fill="black" stroke="black" points="475.43,-120.87 485.83,-118.87 476.45,-113.95 475.43,-120.87"/>
<text text-anchor="middle" x="440.5" y="-118.4" font-family="helvetica" font-size="12.00">HTTP</text>
</g>
<!-- Rsyslog -->
<g id="node7" class="node">
<title>Rsyslog</title>
<polygon fill="aliceblue" stroke="black" points="567.5,-90 502.5,-90 502.5,-54 567.5,-54 567.5,-90"/>
<text text-anchor="middle" x="535" y="-68.3" font-family="helvetica" font-size="14.00">Rsyslog</text>
</g>
<!-- Fluentd&#45;&gt;Rsyslog -->
<g id="edge5" class="edge">
<title>Fluentd&#45;&gt;Rsyslog</title>
<path fill="none" stroke="black" d="M395.21,-92.53C424.61,-88.18 463.14,-82.48 492.14,-78.19"/>
<polygon fill="black" stroke="black" points="492.98,-81.61 502.36,-76.68 491.95,-74.68 492.98,-81.61"/>
<text text-anchor="middle" x="440.5" y="-92.4" font-family="helvetica" font-size="12.00">UDP/TCP</text>
</g>
<!-- Kafka -->
<g id="node8" class="node">
<title>Kafka</title>
<polygon fill="aliceblue" stroke="black" points="562,-36 508,-36 508,0 562,0 562,-36"/>
<text text-anchor="middle" x="535" y="-14.3" font-family="helvetica" font-size="14.00">Kafka</text>
</g>
<!-- Fluentd&#45;&gt;Kafka -->
<g id="edge6" class="edge">
<title>Fluentd&#45;&gt;Kafka</title>
<path fill="none" stroke="black" d="M383.95,-79.99C393.2,-74.87 403.39,-69.5 413,-65 440.99,-51.9 473.7,-39.35 498.06,-30.52"/>
<polygon fill="black" stroke="black" points="499.38,-33.76 507.61,-27.09 497.02,-27.17 499.38,-33.76"/>
<text text-anchor="middle" x="440.5" y="-68.4" font-family="helvetica" font-size="12.00">TCP</text>
</g>
</g>
</svg>
