<?xml version="1.0" encoding="UTF-8" standalone="no"?>
<!DOCTYPE svg PUBLIC "-//W3C//DTD SVG 1.1//EN"
 "http://www.w3.org/Graphics/SVG/1.1/DTD/svg11.dtd">
<!-- Generated by graphviz version 2.44.0 (0)
 -->
<!-- Pages: 1 -->
<svg width="496pt" height="390pt"
 viewBox="0.00 0.00 496.00 389.75" xmlns="http://www.w3.org/2000/svg" xmlns:xlink="http://www.w3.org/1999/xlink">
<g id="graph0" class="graph" transform="scale(1 1) rotate(0) translate(4 385.75)">
<polygon fill="white" stroke="transparent" points="-4,4 -4,-385.75 492,-385.75 492,4 -4,4"/>
<g id="clust2" class="cluster">
<title>cluster_clo</title>
<polygon fill="none" stroke="black" points="70,-295.75 70,-373.75 480,-373.75 480,-295.75 70,-295.75"/>
<text text-anchor="middle" x="275" y="-356.95" font-family="helvetica" font-size="16.00">Cluster Logging Operator</text>
</g>
<g id="clust3" class="cluster">
<title>cluster_elo</title>
<polygon fill="none" stroke="black" points="8,-186.75 8,-264.75 278,-264.75 278,-186.75 8,-186.75"/>
<text text-anchor="middle" x="143" y="-247.95" font-family="helvetica" font-size="16.00">Elasticsearch Operator</text>
</g>
<!-- cl -->
<g id="node1" class="node">
<title>cl</title>
<polygon fill="orchid" stroke="black" points="238.11,-321.75 198.05,-339.75 117.95,-339.75 77.89,-321.75 117.95,-303.75 198.05,-303.75 238.11,-321.75"/>
<text text-anchor="middle" x="158" y="-318.05" font-family="helvetica" font-size="14.00">ClusterLogging</text>
</g>
<!-- es -->
<g id="node3" class="node">
<title>es</title>
<polygon fill="orchid" stroke="black" points="163.6,-212.75 126.8,-230.75 53.2,-230.75 16.4,-212.75 53.2,-194.75 126.8,-194.75 163.6,-212.75"/>
<text text-anchor="middle" x="90" y="-209.05" font-family="helvetica" font-size="14.00">Elasticsearch</text>
</g>
<!-- cl&#45;&gt;es -->
<g id="edge2" class="edge">
<title>cl&#45;&gt;es</title>
<path fill="none" stroke="black" d="M147.07,-303.56C136.07,-286.24 118.96,-259.32 106.34,-239.46"/>
<polygon fill="black" stroke="black" points="109.22,-237.46 100.9,-230.9 103.31,-241.22 109.22,-237.46"/>
<text text-anchor="middle" x="155" y="-276.15" font-family="helvetica" font-size="12.00">creates</text>
</g>
<!-- kb -->
<g id="node4" class="node">
<title>kb</title>
<polygon fill="orchid" stroke="black" points="270.06,-212.75 248.03,-230.75 203.97,-230.75 181.94,-212.75 203.97,-194.75 248.03,-194.75 270.06,-212.75"/>
<text text-anchor="middle" x="226" y="-209.05" font-family="helvetica" font-size="14.00">Kibana</text>
</g>
<!-- cl&#45;&gt;kb -->
<g id="edge3" class="edge">
<title>cl&#45;&gt;kb</title>
<path fill="none" stroke="black" d="M168.93,-303.56C179.93,-286.24 197.04,-259.32 209.66,-239.46"/>
<polygon fill="black" stroke="black" points="212.69,-241.22 215.1,-230.9 206.78,-237.46 212.69,-241.22"/>
<text text-anchor="middle" x="208" y="-276.15" font-family="helvetica" font-size="12.00">creates</text>
</g>
<!-- fd -->
<g id="node5" class="node">
<title>fd</title>
<polygon fill="cyan" stroke="black" points="400.5,-239.25 293.5,-239.25 293.5,-186.25 400.5,-186.25 400.5,-239.25"/>
<text text-anchor="middle" x="347" y="-224.05" font-family="helvetica" font-size="14.00">Fluentd</text>
<text text-anchor="middle" x="347" y="-209.05" font-family="helvetica" font-size="14.00">Daemonset</text>
<text text-anchor="middle" x="347" y="-194.05" font-family="helvetica" font-size="14.00">(Pod per node)</text>
</g>
<!-- cl&#45;&gt;fd -->
<g id="edge4" class="edge">
<title>cl&#45;&gt;fd</title>
<path fill="none" stroke="black" d="M200.32,-304.62C224.9,-294.53 256.04,-280.48 282,-264.75 291.2,-259.17 300.6,-252.49 309.27,-245.82"/>
<polygon fill="black" stroke="black" points="311.65,-248.4 317.35,-239.46 307.32,-242.9 311.65,-248.4"/>
<text text-anchor="middle" x="286" y="-276.15" font-family="helvetica" font-size="12.00">creates</text>
</g>
<!-- clf -->
<g id="node2" class="node">
<title>clf</title>
<polygon fill="orchid" stroke="black" points="472.14,-321.75 418.07,-339.75 309.93,-339.75 255.86,-321.75 309.93,-303.75 418.07,-303.75 472.14,-321.75"/>
<text text-anchor="middle" x="364" y="-318.05" font-family="helvetica" font-size="14.00">ClusterLogForwarder</text>
</g>
<!-- clf&#45;&gt;fd -->
<g id="edge1" class="edge">
<title>clf&#45;&gt;fd</title>
<path fill="none" stroke="black" d="M361.27,-303.56C358.95,-288.97 355.55,-267.57 352.65,-249.31"/>
<polygon fill="black" stroke="black" points="356.08,-248.61 351.06,-239.28 349.17,-249.71 356.08,-248.61"/>
<text text-anchor="middle" x="386" y="-276.15" font-family="helvetica" font-size="12.00">configures</text>
</g>
<!-- store -->
<g id="node6" class="node">
<title>store</title>
<path fill="beige" stroke="black" d="M171,-132.6C171,-135.24 158.9,-137.38 144,-137.38 129.1,-137.38 117,-135.24 117,-132.6 117,-132.6 117,-89.65 117,-89.65 117,-87.01 129.1,-84.87 144,-84.87 158.9,-84.87 171,-87.01 171,-89.65 171,-89.65 171,-132.6 171,-132.6"/>
<path fill="none" stroke="black" d="M171,-132.6C171,-129.97 158.9,-127.83 144,-127.83 129.1,-127.83 117,-129.97 117,-132.6"/>
<text text-anchor="middle" x="144" y="-114.92" font-family="helvetica" font-size="14.00">Log</text>
<text text-anchor="middle" x="144" y="-99.92" font-family="helvetica" font-size="14.00">Store</text>
</g>
<!-- es&#45;&gt;store -->
<g id="edge5" class="edge">
<title>es&#45;&gt;store</title>
<path fill="none" stroke="black" d="M99.41,-194.4C106.53,-181.25 116.55,-162.77 125.28,-146.66"/>
<polygon fill="black" stroke="black" points="128.56,-147.96 130.25,-137.5 122.4,-144.62 128.56,-147.96"/>
<text text-anchor="middle" x="142.5" y="-158.65" font-family="helvetica" font-size="12.00">controls</text>
</g>
<!-- ui -->
<g id="node7" class="node">
<title>ui</title>
<ellipse fill="aliceblue" stroke="black" cx="180" cy="-18" rx="65.79" ry="18"/>
<text text-anchor="middle" x="180" y="-14.3" font-family="helvetica" font-size="14.00">Exploration UI</text>
</g>
<!-- kb&#45;&gt;ui -->
<g id="edge6" class="edge">
<title>kb&#45;&gt;ui</title>
<path fill="none" stroke="black" d="M225.66,-194.6C224.59,-165.01 220.15,-102.81 202,-54 200.82,-50.84 199.34,-47.66 197.7,-44.57"/>
<polygon fill="black" stroke="black" points="200.56,-42.54 192.45,-35.71 194.53,-46.1 200.56,-42.54"/>
<text text-anchor="middle" x="244" y="-108.03" font-family="helvetica" font-size="12.00">provides</text>
</g>
<!-- ui&#45;&gt;store -->
<g id="edge7" class="edge">
<title>ui&#45;&gt;store</title>
<path fill="none" stroke="black" d="M167.26,-35.76C163.51,-41.33 159.69,-47.72 157,-54 154.2,-60.55 151.95,-67.8 150.16,-74.85"/>
<polygon fill="black" stroke="black" points="146.67,-74.41 147.86,-84.94 153.5,-75.96 146.67,-74.41"/>
<text text-anchor="middle" x="179.5" y="-57.4" font-family="helvetica" font-size="12.00">browses</text>
</g>
</g>
</svg>
