<?xml version="1.0" encoding="utf-8"?>
<!-- Generator: Adobe Illustrator 23.0.1, SVG Export Plug-In . SVG Version: 6.00 Build 0)  -->
<svg version="1.1" id="Layer_1" xmlns="http://www.w3.org/2000/svg" xmlns:xlink="http://www.w3.org/1999/xlink" x="0px" y="0px"
	 viewBox="0 0 64 64" style="enable-background:new 0 0 64 64;" xml:space="preserve">
<style type="text/css">
	.st0{fill:none;stroke:#0079a5;stroke-width:3.992;stroke-linecap:round;stroke-miterlimit:10;}
</style>
<g>
	<path class="st0" d="M22,42.1c-5.5-5.5-5.5-14.4,0-19.9s14.4-5.5,19.9,0c2.8,2.8,4.2,6.6,4.1,10.3"/>
	<path class="st0" d="M36.2,28c-2.3-2.3-6.1-2.3-8.4,0s-2.3,6,0,8.4c3.2,3.2,3.2,8.3,0,11.4c-3.2,3.2-8.3,3.1-11.4,0
		c-8.6-8.6-8.5-22.5,0-31s22.4-8.6,31,0c1.7,1.7,3,3.5,4,5.5"/>
	<path class="st0" d="M18.7,5c11.3-5.2,25-3.2,34.3,6.1c6.4,6.4,9.3,14.9,8.9,23.2"/>
	<path class="st0" d="M10.8,53.3C-0.9,41.6-0.9,22.7,10.8,11"/>
	<path class="st0" d="M51.4,22.1c5.8,11.3,4,25.4-5.5,34.9c-1.8,1.8-3.8,3.3-5.9,4.6"/>
	<path class="st0" d="M46.2,41.6c-1,3.3-2.9,6.4-5.5,9.1c-1.3,1.3-2.8,2.5-4.4,3.4"/>
	<path class="st0" d="M51.3,21.9c0,0.1,0.1,0.2,0.1,0.2"/>
	<path class="st0" d="M35.7,27.6c2,1.7,3.3,4.1,3.5,7c0.2,2.8-0.8,5.4-2.6,7.3"/>
	<path class="st0" d="M41.3,50.1c-5.7,5.7-13.1,8.6-20.6,8.8"/>
</g>
</svg>
