<?xml version="1.0" encoding="utf-8"?>
<!-- Generator: Adobe Illustrator 23.0.1, SVG Export Plug-In . SVG Version: 6.00 Build 0)  -->
<svg version="1.1" id="Layer_1" xmlns="http://www.w3.org/2000/svg" xmlns:xlink="http://www.w3.org/1999/xlink" x="0px" y="0px"
	 viewBox="0 0 131.2 35.9" style="enable-background:new 0 0 131.2 35.9;" xml:space="preserve">
<style type="text/css">
	.st0{fill:#36499B;}
	.st1{fill:#0081C3;}
	.st2{fill:#67CFEE;}
	.st3{fill:#9D7AD1;}
	.st4{fill:#FF5892;}
	.st5{fill:#E470C0;}
</style>
<g>
	<g>
		<g>
			<path class="st0" d="M40.2,11.7c0-2.4,1.8-4.2,4.2-4.2c2.4,0,4.2,1.7,4.2,4.2c0,2.4-1.8,4.2-4.2,4.2
				C41.9,15.9,40.2,14.1,40.2,11.7z M46.8,11.7c0-1.5-1-2.6-2.5-2.6c-1.5,0-2.4,1.1-2.4,2.6c0,1.5,1,2.6,2.4,2.6
				C45.9,14.3,46.8,13.2,46.8,11.7z"/>
			<path class="st0" d="M51.1,15v3h-1.5V9.9h1.5v0.7c0.4-0.6,1.1-0.9,1.8-0.9c1.5,0,2.6,1.1,2.6,3.1c0,1.9-1.1,3.1-2.6,3.1
				C52.2,15.9,51.6,15.6,51.1,15z M53.9,12.8c0-1-0.6-1.7-1.5-1.7c-0.5,0-1.1,0.3-1.3,0.7v2.1c0.3,0.4,0.8,0.7,1.3,0.7
				C53.3,14.5,53.9,13.8,53.9,12.8z"/>
			<path class="st0" d="M56.1,12.8c0-1.7,1.2-3.1,3-3.1c1.7,0,2.9,1.3,2.9,3.2v0.3h-4.3c0.1,0.7,0.7,1.4,1.7,1.4
				c0.5,0,1.2-0.2,1.6-0.6l0.7,1c-0.6,0.5-1.5,0.8-2.4,0.8C57.5,15.9,56.1,14.7,56.1,12.8z M59.2,11c-1,0-1.4,0.7-1.4,1.3h2.9
				C60.6,11.7,60.2,11,59.2,11z"/>
			<path class="st0" d="M67,15.7v-3.5c0-0.8-0.4-1.1-1.1-1.1c-0.6,0-1.1,0.3-1.3,0.7v3.9h-1.5V9.9h1.5v0.8c0.4-0.4,1.1-0.9,2-0.9
				c1.3,0,1.9,0.7,1.9,1.9v4.1H67z"/>
			<path class="st0" d="M73,15.7V7.7h3.2c2.5,0,4.3,1.6,4.3,4c0,2.4-1.8,4-4.3,4H73z M78.7,11.7c0-1.4-0.9-2.5-2.5-2.5h-1.5v5h1.5
				C77.7,14.2,78.7,13.1,78.7,11.7z"/>
			<path class="st0" d="M81.3,8.3c0-0.5,0.4-0.9,0.9-0.9c0.5,0,0.9,0.4,0.9,0.9s-0.4,0.9-0.9,0.9C81.7,9.3,81.3,8.8,81.3,8.3z
				 M81.4,15.7V9.9H83v5.8H81.4z"/>
			<path class="st0" d="M83.8,15l0.7-1.1c0.4,0.4,1.3,0.8,2,0.8c0.7,0,1-0.3,1-0.6c0-1-3.5-0.2-3.5-2.5c0-1,0.9-1.8,2.4-1.8
				c1,0,1.8,0.3,2.4,0.8l-0.6,1c-0.4-0.4-1-0.7-1.7-0.7c-0.6,0-0.9,0.3-0.9,0.6c0,0.9,3.5,0.1,3.5,2.5c0,1.1-0.9,1.9-2.5,1.9
				C85.4,15.9,84.5,15.5,83.8,15z"/>
			<path class="st0" d="M90.4,14.3v-3h-1V9.9h1V8.3h1.5v1.6h1.2v1.3h-1.2v2.6c0,0.4,0.2,0.6,0.5,0.6c0.2,0,0.4-0.1,0.5-0.2l0.3,1.2
				c-0.2,0.2-0.6,0.4-1.3,0.4C90.9,15.9,90.4,15.3,90.4,14.3z"/>
			<path class="st0" d="M94.1,15.7V9.9h1.5v0.8c0.4-0.5,1.1-0.9,1.9-0.9v1.5c-0.1,0-0.3,0-0.4,0c-0.5,0-1.2,0.3-1.4,0.7v3.9H94.1z"
				/>
			<path class="st0" d="M97.9,12.8c0-1.7,1.2-3.1,3.1-3.1c1.9,0,3.1,1.4,3.1,3.1c0,1.7-1.2,3.1-3.1,3.1C99,15.9,97.9,14.5,97.9,12.8
				z M102.4,12.8c0-0.9-0.5-1.7-1.5-1.7c-1,0-1.5,0.8-1.5,1.7c0,0.9,0.5,1.7,1.5,1.7C101.9,14.5,102.4,13.7,102.4,12.8z"/>
			<path class="st0" d="M41.2,27.8v-5h-1v-0.8h1v-0.4c0-1.2,0.7-1.9,1.7-1.9c0.5,0,0.9,0.1,1.2,0.4l-0.4,0.6
				c-0.2-0.2-0.4-0.3-0.7-0.3c-0.6,0-0.9,0.4-0.9,1.1v0.4h1.2v0.8h-1.2v5H41.2z"/>
			<path class="st0" d="M43.8,24.9c0-1.7,1.1-3.1,2.9-3.1c1.8,0,2.9,1.4,2.9,3.1s-1.1,3.1-2.9,3.1C44.9,27.9,43.8,26.5,43.8,24.9z
				 M48.6,24.9c0-1.2-0.7-2.2-1.9-2.2c-1.2,0-1.9,1.1-1.9,2.2c0,1.2,0.7,2.3,1.9,2.3C47.9,27.1,48.6,26.1,48.6,24.9z"/>
			<path class="st0" d="M50.7,27.8v-5.8h0.9v0.9c0.5-0.6,1.1-1.1,1.9-1.1v0.9c-0.1,0-0.2,0-0.4,0c-0.6,0-1.3,0.5-1.6,0.9v4.1H50.7z"
				/>
			<path class="st0" d="M56.9,27.8v-8.1h5.3v0.9h-4.3v2.6h4.2v0.9h-4.2v2.8h4.3v0.9H56.9z"/>
			<path class="st0" d="M63.6,27.8v-8.1h0.9v8.1H63.6z"/>
			<path class="st0" d="M70.3,27.8v-0.9c-0.4,0.6-1.1,1-2,1c-1.5,0-2.6-1.2-2.6-3.1c0-1.9,1.1-3.1,2.6-3.1c0.8,0,1.5,0.4,2,1v-0.9
				h0.9v5.8H70.3z M70.3,26.2v-2.6c-0.3-0.5-1-0.9-1.8-0.9c-1.2,0-1.9,1-1.9,2.3c0,1.3,0.7,2.2,1.9,2.2C69.3,27.1,70,26.7,70.3,26.2
				z"/>
			<path class="st0" d="M72.4,27l0.5-0.7c0.4,0.4,1.1,0.8,1.9,0.8c0.9,0,1.4-0.4,1.4-1c0-1.4-3.6-0.5-3.6-2.7c0-0.9,0.8-1.7,2.2-1.7
				c1,0,1.7,0.4,2.2,0.8l-0.4,0.6c-0.4-0.4-1-0.7-1.7-0.7c-0.8,0-1.3,0.4-1.3,0.9c0,1.3,3.6,0.4,3.6,2.7c0,1-0.8,1.8-2.3,1.8
				C73.8,27.9,73,27.6,72.4,27z"/>
			<path class="st0" d="M78.8,26.6v-3.8h-1v-0.8h1v-1.6h0.9v1.6h1.2v0.8h-1.2v3.6c0,0.4,0.2,0.7,0.6,0.7c0.3,0,0.5-0.1,0.6-0.2
				l0.3,0.7c-0.2,0.2-0.6,0.4-1.1,0.4C79.2,27.9,78.8,27.4,78.8,26.6z"/>
			<path class="st0" d="M81.9,20.5c0-0.3,0.3-0.6,0.6-0.6c0.3,0,0.6,0.3,0.6,0.6s-0.3,0.6-0.6,0.6C82.2,21.1,81.9,20.9,81.9,20.5z
				 M82.1,27.8v-5.8H83v5.8H82.1z"/>
			<path class="st0" d="M84.2,24.9c0-1.7,1.2-3.1,2.9-3.1c1.1,0,1.7,0.4,2.1,1l-0.6,0.6c-0.4-0.5-0.9-0.8-1.5-0.8c-1.2,0-2,1-2,2.2
				s0.8,2.3,2,2.3c0.6,0,1.1-0.2,1.5-0.8l0.6,0.6c-0.4,0.6-1.1,1-2.1,1C85.4,27.9,84.2,26.6,84.2,24.9z"/>
			<path class="st0" d="M90,27l0.5-0.7c0.4,0.4,1.1,0.8,1.9,0.8c0.9,0,1.4-0.4,1.4-1c0-1.4-3.6-0.5-3.6-2.7c0-0.9,0.8-1.7,2.2-1.7
				c1,0,1.7,0.4,2.2,0.8l-0.4,0.6c-0.4-0.4-1-0.7-1.7-0.7c-0.8,0-1.3,0.4-1.3,0.9c0,1.3,3.6,0.4,3.6,2.7c0,1-0.8,1.8-2.3,1.8
				C91.4,27.9,90.6,27.6,90,27z"/>
			<path class="st0" d="M95.6,24.9c0-1.7,1.2-3.1,2.9-3.1c1.8,0,2.8,1.4,2.8,3.1v0.2h-4.7c0.1,1.1,0.8,2,2.1,2
				c0.7,0,1.3-0.3,1.8-0.7l0.4,0.6c-0.6,0.6-1.4,0.9-2.3,0.9C96.9,27.9,95.6,26.7,95.6,24.9z M98.5,22.6c-1.2,0-1.9,1.1-1.9,1.9h3.8
				C100.4,23.6,99.8,22.6,98.5,22.6z"/>
			<path class="st0" d="M106.9,27.8v-0.9c-0.4,0.6-1.1,1-2,1c-1.5,0-2.6-1.2-2.6-3.1c0-1.9,1.1-3.1,2.6-3.1c0.8,0,1.5,0.4,2,1v-0.9
				h0.9v5.8H106.9z M106.9,26.2v-2.6c-0.3-0.5-1-0.9-1.8-0.9c-1.2,0-1.9,1-1.9,2.3c0,1.3,0.7,2.2,1.9,2.2
				C105.8,27.1,106.5,26.7,106.9,26.2z"/>
			<path class="st0" d="M109.3,27.8v-5.8h0.9v0.9c0.5-0.6,1.1-1.1,1.9-1.1v0.9c-0.1,0-0.2,0-0.4,0c-0.6,0-1.3,0.5-1.6,0.9v4.1H109.3
				z"/>
			<path class="st0" d="M112.6,24.9c0-1.7,1.2-3.1,2.9-3.1c1.1,0,1.7,0.4,2.1,1l-0.6,0.6c-0.4-0.5-0.9-0.8-1.5-0.8c-1.2,0-2,1-2,2.2
				s0.8,2.3,2,2.3c0.6,0,1.1-0.2,1.5-0.8l0.6,0.6c-0.4,0.6-1.1,1-2.1,1C113.7,27.9,112.6,26.6,112.6,24.9z"/>
			<path class="st0" d="M122.7,27.8v-3.8c0-1-0.5-1.3-1.3-1.3c-0.7,0-1.4,0.4-1.7,0.9v4.3h-0.9v-8.1h0.9v3.1c0.4-0.5,1.2-1,2.1-1
				c1.2,0,1.9,0.6,1.9,1.9v4.1H122.7z"/>
		</g>
	</g>
</g>
<g>
	<g>
		<path class="st0" d="M21.1,26c4.1-0.4,7.3-3.9,7.3-8.1c0-4.2-3.2-7.7-7.3-8.1V4.9c6.8,0.4,12.3,6.1,12.3,13
			c0,6.9-5.4,12.6-12.3,13V26z"/>
	</g>
	<circle class="st1" cx="17" cy="28" r="2.4"/>
	<circle class="st2" cx="11.7" cy="24.1" r="2.4"/>
	<circle class="st3" cx="9.7" cy="18" r="2.4"/>
	<circle class="st4" cx="11.7" cy="11.8" r="2.4"/>
	<circle class="st5" cx="17" cy="7.8" r="2.4"/>
</g>
</svg>
